<?xml version="1.0" encoding="UTF-8" standalone="no"?>
<svg
   width="260.00232"
   height="266.99991"
   viewBox="0 0 260.00232 266.99991"
   fill="none"
   version="1.1"
   id="svg35"
   xmlns="http://www.w3.org/2000/svg"
   xmlns:svg="http://www.w3.org/2000/svg">
  <defs
     id="defs35" />
  <g
     id="g37"
     style="display:inline"
     transform="translate(-268.01585,-209.00018)">
    <path
       d="m 277.568,405.728 c -0.223,-3.212 -0.366,-6.351 -0.396,-9.426 -1.287,-2.501 -2.499,-5.069 -3.631,-7.708 -5.546,-14.242 -6.68,-28.878 -4.456,-43.259 -1.378,-31.36 9.014,-61.642 28.73,-85.929 5.388,-14.352 16.114,-26.287 34.216,-33.363 4.975,-1.945 10.049,-3.598 15.191,-4.964 5.495,-2.581 11.238,-4.87 17.213,-6.837 12.815,-4.058 26.284,-5.481 39.574,-4.479 11.373,-1.028 22.987,-1.015 34.656,0.027 43.283,7.999 72.632,37.931 82.238,77.833 0.741,3.08 1.403,6.163 1.987,9.246 2.54,9.117 3.487,18.427 3.131,27.752 0.386,10.614 -0.172,21.098 -1.66,31.305 1.427,5.608 2.465,11.203 3.069,16.74 2.268,20.982 -1.852,40.898 -15.346,55.899 -4.004,4.452 -8.818,8.463 -14.559,11.894 -8.445,4.599 -16.61,8.211 -25.176,10.036 -15.26,12.534 -33.824,21.368 -54.886,24.464 -9.582,1.275 -19.651,1.437 -30.136,0.162 -8.848,-0.765 -17.341,-2.567 -25.427,-5.237 -4.7,0.444 -9.467,0.509 -14.292,0.136 -7.268,-1.229 -14.304,-3.06 -20.947,-5.495 -19.929,-7.303 -36.27,-20.148 -44.302,-39.669 -2.384,-5.773 -4.027,-12.149 -4.791,-19.128 z"
       fill="#ffffff"
       id="path4"
       style="display:inline" />
  </g>
</svg>
