<?xml version="1.0" encoding="UTF-8" standalone="no"?>
<svg
   width="241.68608"
   height="253.15776"
   viewBox="0 0 241.68608 253.15776"
   fill="none"
   version="1.1"
   id="svg35"
   xmlns="http://www.w3.org/2000/svg"
   xmlns:svg="http://www.w3.org/2000/svg">
  <defs
     id="defs35" />
  <g
     id="g37"
     style="display:inline"
     transform="translate(-277.15022,-217.10321)">
    <path
       opacity="0.8"
       d="m 427.493,441.385 c -23.262,16.925 -50.505,30.905 -79.901,28.633 -7.268,-1.229 -14.304,-3.06 -20.947,-5.495 -19.929,-7.303 -36.27,-20.148 -44.302,-39.669 -2.384,-5.774 -4.027,-12.149 -4.791,-19.128 -1.273,-18.316 0.07,-34.268 10.046,-49.593 26.132,-31.717 43.607,-64.13 57.448,-104.867 9.166,-19.661 28.562,-29.978 49.255,-32.783 7.268,-1.136 14.744,-1.577 22.429,-1.299 51.384,3.942 86.034,57.731 98.023,111.312 1.713,7.651 2.963,15.302 3.727,22.791 4.976,49.176 -43.26,64.779 -76.452,80.453 -4.722,2.99 -9.559,6.283 -14.535,9.645 z"
       fill="#f7931e"
       id="path5"
       style="display:inline" />
  </g>
</svg>
