<?xml version="1.0" encoding="UTF-8" standalone="no"?>
<svg
   width="260.00223"
   height="216.26196"
   viewBox="0 0 260.00223 216.26196"
   fill="none"
   version="1.1"
   id="svg35"
   xmlns="http://www.w3.org/2000/svg"
   xmlns:svg="http://www.w3.org/2000/svg">
  <defs
     id="defs35" />
  <g
     id="g37"
     style="display:inline"
     transform="translate(-268.00002,-235.53748)">
    <path
       opacity="0.8"
       d="m 463.762,290.264 c 24.744,14.444 48.677,33.642 59.37,61.209 2.06,7.094 3.518,14.189 4.282,21.191 2.268,20.982 -1.851,40.898 -15.346,55.899 -4.004,4.452 -8.818,8.463 -14.559,11.894 -15.369,8.37 -29.812,13.471 -47.426,10.48 -38.885,-11.152 -74.6,-14.213 -115.985,-10.688 -21.04,-0.557 -38.376,-14.097 -49.764,-31.787 -4.12,-6.144 -7.754,-12.752 -10.809,-19.87 -18.772,-48.202 13.008,-100.925 54.416,-132.99 5.902,-4.567 12.013,-8.741 18.193,-12.381 40.598,-23.973 74.97,13.656 102.931,37.607 4.698,3.153 9.628,6.236 14.697,9.436 z"
       fill="#ff7bac"
       id="path9"
       style="display:inline" />
  </g>
</svg>
