<?xml version="1.0" encoding="UTF-8" standalone="no"?>
<svg
   width="209.23041"
   height="255.11095"
   viewBox="0 0 209.23041 255.11095"
   fill="none"
   version="1.1"
   id="svg35"
   xmlns="http://www.w3.org/2000/svg"
   xmlns:svg="http://www.w3.org/2000/svg">
  <defs
     id="defs35" />
  <g
     id="g37"
     style="display:inline"
     transform="translate(-293.40864,-216.12361)">
    <path
       opacity="0.8"
       d="m 484.293,366.728 c -1.412,13.656 -3.865,27.799 -8.448,41.316 -4.514,13.68 -11.272,26.547 -21.341,37.375 -5.486,4.938 -11.249,9.343 -17.198,13.053 -17.891,11.152 -37.589,16.067 -56.939,10.387 -5.74,-1.693 -11.434,-4.289 -17.012,-7.976 -14.212,-10.224 -25.067,-21.075 -29.998,-38.278 -1.712,-9.993 -3.772,-19.569 -6.272,-28.889 -5.463,-13.981 -10.069,-27.405 -14.999,-40.806 -22.66,-42.73 -33.515,-105.979 19.929,-126.869 53.444,-20.89 118.207,-8.092 156.977,31.926 27.173,26.037 6.897,65.173 -2.153,92.393 -0.949,5.263 -1.736,10.734 -2.546,16.368 z"
       fill="#726789"
       id="path10"
       style="display:inline" />
  </g>
</svg>
